<?xml version="1.0" encoding="UTF-8" standalone="no"?>
<!DOCTYPE svg PUBLIC "-//W3C//DTD SVG 1.1//EN"
 "http://www.w3.org/Graphics/SVG/1.1/DTD/svg11.dtd">
<!-- Generated by graphviz version 14.1.3 (20260303.0454)
 -->
<!-- Title: ProjetoCOO Pages: 1 -->
<svg width="1757pt" height="1057pt"
 viewBox="0.00 0.00 1757.00 1057.00" xmlns="http://www.w3.org/2000/svg" xmlns:xlink="http://www.w3.org/1999/xlink">
<g id="graph0" class="graph" transform="scale(1 1) rotate(0) translate(28.8 1028.44)">
<title>ProjetoCOO</title>
<polygon fill="white" stroke="none" points="-28.8,28.8 -28.8,-1028.44 1727.8,-1028.44 1727.8,28.8 -28.8,28.8"/>
<text xml:space="preserve" text-anchor="middle" x="849.5" y="-979.44" font-family="Arial" font-size="18.00">Projeto COO — Diagrama de classes e dependências</text>
<g id="clust1" class="cluster">
<title>cluster_entry</title>
<path fill="white" stroke="#94a3b8" stroke-dasharray="5,2" d="M459,-838.28C459,-838.28 1126,-838.28 1126,-838.28 1132,-838.28 1138,-844.28 1138,-850.28 1138,-850.28 1138,-950.04 1138,-950.04 1138,-956.04 1132,-962.04 1126,-962.04 1126,-962.04 459,-962.04 459,-962.04 453,-962.04 447,-956.04 447,-950.04 447,-950.04 447,-850.28 447,-850.28 447,-844.28 453,-838.28 459,-838.28"/>
<text xml:space="preserve" text-anchor="middle" x="792.5" y="-946.34" font-family="Arial" font-size="13.00">Aplicação e integração</text>
</g>
<g id="clust3" class="cluster">
<title>cluster_runner</title>
<path fill="white" stroke="#60a5fa" stroke-dasharray="5,2" d="M20,-152.96C20,-152.96 576,-152.96 576,-152.96 582,-152.96 588,-158.96 588,-164.96 588,-164.96 588,-790.08 588,-790.08 588,-796.08 582,-802.08 576,-802.08 576,-802.08 20,-802.08 20,-802.08 14,-802.08 8,-796.08 8,-790.08 8,-790.08 8,-164.96 8,-164.96 8,-158.96 14,-152.96 20,-152.96"/>
<text xml:space="preserve" text-anchor="middle" x="298" y="-786.38" font-family="Arial" font-size="13.00">Runner</text>
</g>
<g id="clust5" class="cluster">
<title>cluster_domain</title>
<path fill="white" stroke="#34d399" stroke-dasharray="5,2" d="M608,-8C608,-8 1679,-8 1679,-8 1685,-8 1691,-14 1691,-20 1691,-20 1691,-544.44 1691,-544.44 1691,-550.44 1685,-556.44 1679,-556.44 1679,-556.44 608,-556.44 608,-556.44 602,-556.44 596,-550.44 596,-544.44 596,-544.44 596,-20 596,-20 596,-14 602,-8 608,-8"/>
<text xml:space="preserve" text-anchor="middle" x="1143.5" y="-540.74" font-family="Arial" font-size="13.00">Domain</text>
</g>
<g id="clust6" class="cluster">
<title>cluster_components</title>
<path fill="white" stroke="#c084fc" stroke-dasharray="5,2" d="M1324,-140.36C1324,-140.36 1671,-140.36 1671,-140.36 1677,-140.36 1683,-146.36 1683,-152.36 1683,-152.36 1683,-298.8 1683,-298.8 1683,-304.8 1677,-310.8 1671,-310.8 1671,-310.8 1324,-310.8 1324,-310.8 1318,-310.8 1312,-304.8 1312,-298.8 1312,-298.8 1312,-152.36 1312,-152.36 1312,-146.36 1318,-140.36 1324,-140.36"/>
<text xml:space="preserve" text-anchor="middle" x="1497.5" y="-296" font-family="Arial" font-size="12.00">Components</text>
</g>
<g id="clust8" class="cluster">
<title>cluster_enemies</title>
<path fill="white" stroke="#f59e0b" stroke-dasharray="5,2" d="M977,-16C977,-16 1433,-16 1433,-16 1439,-16 1445,-22 1445,-28 1445,-28 1445,-101.36 1445,-101.36 1445,-107.36 1439,-113.36 1433,-113.36 1433,-113.36 977,-113.36 977,-113.36 971,-113.36 965,-107.36 965,-101.36 965,-101.36 965,-28 965,-28 965,-22 971,-16 977,-16"/>
<text xml:space="preserve" text-anchor="middle" x="1205" y="-98.56" font-family="Arial" font-size="12.00">Enemies</text>
</g>
<!-- Main&#45;&gt;Game -->
<g id="edge1" class="edge">
<title>Main:s&#45;&gt;Game:n</title>
<path fill="none" stroke="#64748b" stroke-width="1.1" stroke-dasharray="5,2" d="M541,-858.38C541,-858.38 525.16,-800.68 519.21,-779.05"/>
<polygon fill="#64748b" stroke="#64748b" stroke-width="1.1" points="517.35,-772.27 522.39,-778.36 518,-774.44 519.31,-779.2 519.26,-779.22 519.21,-779.23 517.91,-774.46 516.14,-780.07 517.35,-772.27"/>
<text xml:space="preserve" text-anchor="middle" x="556.9" y="-812.63" font-family="Arial" font-size="8.50" fill="#475569">cria e executa</text>
</g>
<!-- GameLibAdapter&#45;&gt;GameIO -->
<g id="edge2" class="edge">
<title>GameLibAdapter:s&#45;&gt;GameIO:n</title>
<path fill="none" stroke="#2563eb" stroke-width="1.1" stroke-dasharray="5,2" d="M742,-845.78C742,-845.78 889.25,-554.03 915.14,-502.75"/>
<polygon fill="none" stroke="#2563eb" stroke-width="1.1" points="917.26,-504.15 918.25,-496.59 912.76,-501.88 917.26,-504.15"/>
<text xml:space="preserve" text-anchor="middle" x="887.03" y="-683.01" font-family="Arial" font-size="8.50" fill="#475569">implementa</text>
</g>
<!-- JavaSE&#45;&gt;Legend -->
<!-- Game&#45;&gt;EnemySpawner -->
<g id="edge3" class="edge">
<title>Game&#45;&gt;EnemySpawner</title>
<path fill="none" stroke="#64748b" stroke-width="1.1" stroke-dasharray="5,2" d="M453.58,-660.16C356.96,-622.99 184,-556.44 184,-556.44 184,-556.44 161.31,-528.26 138.35,-499.74"/>
<polygon fill="#64748b" stroke="#64748b" stroke-width="1.1" points="133.99,-494.32 141.03,-497.89 135.44,-496.04 138.54,-499.89 138.5,-499.92 138.46,-499.96 135.36,-496.11 135.98,-501.96 133.99,-494.32"/>
</g>
<!-- Game&#45;&gt;CollisionDetector -->
<g id="edge4" class="edge">
<title>Game&#45;&gt;CollisionDetector</title>
<path fill="none" stroke="#64748b" stroke-width="1.1" d="M447.5,-603.93C416.12,-567.52 379.94,-525.55 352.16,-493.31"/>
<polygon fill="#64748b" stroke="#64748b" stroke-width="1.1" points="447.42,-603.83 452.42,-605.23 453.06,-610.38 448.06,-608.99 447.42,-603.83"/>
<text xml:space="preserve" text-anchor="middle" x="420.66" y="-566.99" font-family="Arial" font-size="8.50" fill="#475569">1</text>
</g>
<!-- Game&#45;&gt;StarField -->
<g id="edge5" class="edge">
<title>Game&#45;&gt;StarField</title>
<path fill="none" stroke="#64748b" stroke-width="1.1" d="M515.85,-591.23C515.41,-555.5 514.93,-516.31 514.57,-486.91"/>
<polygon fill="#64748b" stroke="#64748b" stroke-width="1.1" points="515.85,-591.08 518.78,-595.37 515.96,-599.72 513.02,-595.44 515.85,-591.08"/>
<text xml:space="preserve" text-anchor="middle" x="517.95" y="-566.99" font-family="Arial" font-size="8.50" fill="#475569">1</text>
</g>
<!-- Game&#45;&gt;GameIO -->
<g id="edge7" class="edge">
<title>Game&#45;&gt;GameIO</title>
<path fill="none" stroke="#64748b" stroke-width="1.1" d="M588.51,-642.71C647.75,-608.05 722.27,-564.44 722.27,-564.44 722.27,-564.44 837,-556.44 837,-556.44 837,-556.44 859.47,-524.79 880.88,-494.62"/>
<polygon fill="none" stroke="#64748b" stroke-width="1.1" points="588.58,-642.68 586.3,-647.34 581.12,-647.04 583.39,-642.37 588.58,-642.68"/>
<text xml:space="preserve" text-anchor="middle" x="724.64" y="-566.99" font-family="Arial" font-size="8.50" fill="#475569">1</text>
</g>
<!-- Game&#45;&gt;Entity -->
<!-- Game&#45;&gt;Player -->
<g id="edge8" class="edge">
<title>Game&#45;&gt;Player</title>
<path fill="none" stroke="#64748b" stroke-width="1.1" d="M589.38,-651.75C667.84,-616.19 782,-564.44 782,-564.44 782,-564.44 1002,-556.44 1002,-556.44 1002,-556.44 1002,-355 1002,-355 1002,-355 895,-318.8 895,-318.8 895,-318.8 857,-310.8 857,-310.8 857,-310.8 815.46,-281.44 778.47,-255.29"/>
<polygon fill="#64748b" stroke="#64748b" stroke-width="1.1" points="589.25,-651.81 586.5,-656.22 581.38,-655.38 584.12,-650.97 589.25,-651.81"/>
<text xml:space="preserve" text-anchor="middle" x="1004.36" y="-437.37" font-family="Arial" font-size="8.50" fill="#475569">1</text>
</g>
<!-- Game&#45;&gt;Projectile -->
<g id="edge10" class="edge">
<title>Game&#45;&gt;Projectile</title>
<path fill="none" stroke="#64748b" stroke-width="1.1" d="M589.38,-656.78C681.83,-621.3 830,-564.44 830,-564.44 830,-564.44 1015,-556.44 1015,-556.44 1015,-556.44 1015,-355 1015,-355 1015,-355 994.18,-302.15 978.16,-261.48"/>
<polygon fill="#64748b" stroke="#64748b" stroke-width="1.1" points="589.33,-656.8 586.33,-661.04 581.27,-659.9 584.27,-655.66 589.33,-656.8"/>
<text xml:space="preserve" text-anchor="middle" x="1038.62" y="-437.37" font-family="Arial" font-size="8.50" fill="#475569">0..* (2 listas)</text>
</g>
<!-- Game&#45;&gt;Enemy -->
<g id="edge9" class="edge">
<title>Game&#45;&gt;Enemy</title>
<path fill="none" stroke="#64748b" stroke-width="1.1" d="M589.29,-659.18C659.64,-634.47 756,-600.64 756,-600.64 756,-600.64 1070,-556.44 1070,-556.44 1070,-556.44 1134.06,-363.09 1165.71,-267.55"/>
<polygon fill="#64748b" stroke="#64748b" stroke-width="1.1" points="589.51,-659.1 586.39,-663.25 581.36,-661.96 584.48,-657.81 589.51,-659.1"/>
<text xml:space="preserve" text-anchor="middle" x="1142.26" y="-437.37" font-family="Arial" font-size="8.50" fill="#475569">0..*</text>
</g>
<!-- StarField&#45;&gt;StarLayer -->
<g id="edge6" class="edge">
<title>StarField&#45;&gt;StarLayer</title>
<path fill="none" stroke="#64748b" stroke-width="1.1" d="M509.26,-383.18C506.26,-347.8 502.39,-302.32 499.44,-267.63"/>
<polygon fill="#64748b" stroke="#64748b" stroke-width="1.1" points="509.27,-383.28 512.51,-387.34 510,-391.89 506.77,-387.82 509.27,-383.28"/>
<text xml:space="preserve" text-anchor="middle" x="506.86" y="-321.35" font-family="Arial" font-size="8.50" fill="#475569">2</text>
</g>
<!-- Entity&#45;&gt;Player -->
<g id="edge11" class="edge">
<title>Entity&#45;&gt;Player</title>
<path fill="none" stroke="#059669" stroke-width="1.1" d="M719.07,-346.56C719.78,-314.7 720.54,-280.67 721.11,-255.25"/>
<polygon fill="none" stroke="#059669" stroke-width="1.1" points="716.56,-346.13 718.91,-353.38 721.59,-346.24 716.56,-346.13"/>
</g>
<!-- Entity&#45;&gt;Projectile -->
<g id="edge12" class="edge">
<title>Entity&#45;&gt;Projectile</title>
<path fill="none" stroke="#059669" stroke-width="1.1" d="M763.52,-347.32C771.88,-330.85 778,-318.8 778,-318.8 778,-318.8 857,-310.8 857,-310.8 857,-310.8 883.97,-285.81 910.31,-261.41"/>
<polygon fill="none" stroke="#059669" stroke-width="1.1" points="761.3,-346.12 760.29,-353.68 765.79,-348.4 761.3,-346.12"/>
</g>
<!-- Entity&#45;&gt;Enemy -->
<g id="edge13" class="edge">
<title>Entity&#45;&gt;Enemy</title>
<path fill="none" stroke="#059669" stroke-width="1.1" d="M775.43,-347.76C786.14,-331.07 794,-318.8 794,-318.8 794,-318.8 1063,-310.8 1063,-310.8 1063,-310.8 1089.15,-290.01 1117.03,-267.84"/>
<polygon fill="none" stroke="#059669" stroke-width="1.1" points="773.35,-346.34 771.59,-353.76 777.59,-349.06 773.35,-346.34"/>
</g>
<!-- Entity&#45;&gt;Explosion -->
<g id="edge17" class="edge">
<title>Entity&#45;&gt;Explosion</title>
<path fill="none" stroke="#64748b" stroke-width="1.1" d="M811.13,-348.66C829.02,-331.51 842.27,-318.8 842.27,-318.8 842.27,-318.8 1316,-310.8 1316,-310.8 1316,-310.8 1327.37,-297.24 1341.53,-280.35"/>
<polygon fill="#64748b" stroke="#64748b" stroke-width="1.1" points="811.3,-348.5 810.17,-353.57 805.06,-354.48 806.19,-349.41 811.3,-348.5"/>
<text xml:space="preserve" text-anchor="middle" x="844.64" y="-321.35" font-family="Arial" font-size="8.50" fill="#475569">1</text>
</g>
<!-- Entity&#45;&gt;ShootingCooldown -->
<g id="edge18" class="edge">
<title>Entity&#45;&gt;ShootingCooldown</title>
<path fill="none" stroke="#64748b" stroke-width="1.1" d="M827.37,-361.09C832.77,-357.28 836,-355 836,-355 836,-355 1489,-310.8 1489,-310.8 1489,-310.8 1507.15,-293.82 1528.14,-274.18"/>
<polygon fill="#64748b" stroke="#64748b" stroke-width="1.1" points="827.32,-361.12 825.45,-365.96 820.26,-366.1 822.13,-361.25 827.32,-361.12"/>
<text xml:space="preserve" text-anchor="middle" x="1366.45" y="-321.35" font-family="Arial" font-size="8.50" fill="#475569">1</text>
</g>
<!-- Enemy&#45;&gt;EnemyType1 -->
<g id="edge14" class="edge">
<title>Enemy&#45;&gt;EnemyType1</title>
<path fill="none" stroke="#d97706" stroke-width="1.1" d="M1124.32,-154.73C1099.74,-130.18 1072.31,-102.76 1052.36,-82.82"/>
<polygon fill="none" stroke="#d97706" stroke-width="1.1" points="1122.45,-156.43 1129.32,-159.73 1126.01,-152.86 1122.45,-156.43"/>
</g>
<!-- Enemy&#45;&gt;EnemyType2 -->
<g id="edge15" class="edge">
<title>Enemy&#45;&gt;EnemyType2</title>
<path fill="none" stroke="#d97706" stroke-width="1.1" d="M1183,-152.23C1183,-128.33 1183,-102.09 1183,-82.82"/>
<polygon fill="none" stroke="#d97706" stroke-width="1.1" points="1180.48,-152.04 1183,-159.24 1185.52,-152.04 1180.48,-152.04"/>
</g>
<!-- Enemy&#45;&gt;EnemyType3 -->
<g id="edge16" class="edge">
<title>Enemy&#45;&gt;EnemyType3</title>
<path fill="none" stroke="#d97706" stroke-width="1.1" d="M1249.42,-155.07C1277.39,-130.52 1308.66,-103.06 1331.46,-83.05"/>
<polygon fill="none" stroke="#d97706" stroke-width="1.1" points="1247.77,-153.17 1244.02,-159.81 1251.09,-156.96 1247.77,-153.17"/>
</g>
<!-- Main -->
<g id="node1" class="node">
<title>Main</title>
<path fill="#f8fafc" stroke="#334155" stroke-width="1.2" d="M466.71,-859.38C466.71,-859.38 615.29,-859.38 615.29,-859.38 621.29,-859.38 627.29,-865.38 627.29,-871.38 627.29,-871.38 627.29,-905.34 627.29,-905.34 627.29,-911.34 621.29,-917.34 615.29,-917.34 615.29,-917.34 466.71,-917.34 466.71,-917.34 460.71,-917.34 454.71,-911.34 454.71,-905.34 454.71,-905.34 454.71,-871.38 454.71,-871.38 454.71,-865.38 460.71,-859.38 466.71,-859.38"/>
<text xml:space="preserve" text-anchor="middle" x="541" y="-902.85" font-family="Arial" font-size="10.50" fill="#0f172a">Main</text>
<polyline fill="none" stroke="#334155" stroke-width="1.2" points="454.71,-894.66 627.29,-894.66"/>
<text xml:space="preserve" text-anchor="start" x="461.91" y="-880.17" font-family="Arial" font-size="10.50" fill="#0f172a">+ main(args) : void</text>
<text xml:space="preserve" text-anchor="start" x="461.91" y="-867.57" font-family="Arial" font-size="10.50" fill="#0f172a">&lt;&lt;cria&gt;&gt; Game, GameLibAdapter</text>
</g>
<!-- GameLibAdapter -->
<g id="node2" class="node">
<title>GameLibAdapter</title>
<path fill="#f8fafc" stroke="#334155" stroke-width="1.2" d="M673.99,-846.78C673.99,-846.78 810.01,-846.78 810.01,-846.78 816.01,-846.78 822.01,-852.78 822.01,-858.78 822.01,-858.78 822.01,-917.94 822.01,-917.94 822.01,-923.94 816.01,-929.94 810.01,-929.94 810.01,-929.94 673.99,-929.94 673.99,-929.94 667.99,-929.94 661.99,-923.94 661.99,-917.94 661.99,-917.94 661.99,-858.78 661.99,-858.78 661.99,-852.78 667.99,-846.78 673.99,-846.78"/>
<text xml:space="preserve" text-anchor="middle" x="742" y="-915.45" font-family="Arial" font-size="10.50" fill="#0f172a">&lt;&lt;adapter&gt;&gt;</text>
<text xml:space="preserve" text-anchor="middle" x="742" y="-902.85" font-family="Arial" font-size="10.50" fill="#0f172a">GameLibAdapter</text>
<polyline fill="none" stroke="#334155" stroke-width="1.2" points="661.99,-894.66 822.01,-894.66"/>
<text xml:space="preserve" text-anchor="start" x="669.19" y="-880.17" font-family="Arial" font-size="10.50" fill="#0f172a">&lt;&lt;implementa&gt;&gt; GameIO</text>
<text xml:space="preserve" text-anchor="start" x="669.19" y="-867.57" font-family="Arial" font-size="10.50" fill="#0f172a">&lt;&lt;delega&gt;&gt; GameLib</text>
<text xml:space="preserve" text-anchor="start" x="669.19" y="-854.97" font-family="Arial" font-size="10.50" fill="#0f172a">+ entrada e operações gráficas</text>
</g>
<!-- GameLib -->
<g id="node3" class="node">
<title>GameLib</title>
<path fill="#f1f5f9" stroke="#334155" stroke-width="1.2" d="M869.21,-846.78C869.21,-846.78 968.79,-846.78 968.79,-846.78 974.79,-846.78 980.79,-852.78 980.79,-858.78 980.79,-858.78 980.79,-917.94 980.79,-917.94 980.79,-923.94 974.79,-929.94 968.79,-929.94 968.79,-929.94 869.21,-929.94 869.21,-929.94 863.21,-929.94 857.21,-923.94 857.21,-917.94 857.21,-917.94 857.21,-858.78 857.21,-858.78 857.21,-852.78 863.21,-846.78 869.21,-846.78"/>
<text xml:space="preserve" text-anchor="middle" x="919" y="-915.45" font-family="Arial" font-size="10.50" fill="#0f172a">&lt;&lt;biblioteca fechada&gt;&gt;</text>
<text xml:space="preserve" text-anchor="middle" x="919" y="-902.85" font-family="Arial" font-size="10.50" fill="#0f172a">GameLib</text>
<polyline fill="none" stroke="#334155" stroke-width="1.2" points="857.21,-894.66 980.79,-894.66"/>
<text xml:space="preserve" text-anchor="start" x="864.41" y="-880.17" font-family="Arial" font-size="10.50" fill="#0f172a">+ WIDTH, HEIGHT</text>
<text xml:space="preserve" text-anchor="start" x="864.41" y="-867.57" font-family="Arial" font-size="10.50" fill="#0f172a">+ teclado</text>
<text xml:space="preserve" text-anchor="start" x="864.41" y="-854.97" font-family="Arial" font-size="10.50" fill="#0f172a">+ desenho e display</text>
</g>
<!-- JavaSE -->
<g id="node4" class="node">
<title>JavaSE</title>
<polygon fill="#f8fafc" stroke="#94a3b8" stroke-width="1.2" points="1123.81,-918.6 1016.19,-918.6 1016.19,-858.12 1129.81,-858.12 1129.81,-912.6 1123.81,-918.6"/>
<polyline fill="none" stroke="#94a3b8" stroke-width="1.2" points="1123.81,-918.6 1123.81,-912.6"/>
<polyline fill="none" stroke="#94a3b8" stroke-width="1.2" points="1129.81,-912.6 1123.81,-912.6"/>
<text xml:space="preserve" text-anchor="middle" x="1073" y="-904.11" font-family="Arial" font-size="10.50" fill="#0f172a">Java SE</text>
<text xml:space="preserve" text-anchor="middle" x="1073" y="-891.51" font-family="Arial" font-size="10.50" fill="#0f172a">Collections / Optional</text>
<text xml:space="preserve" text-anchor="middle" x="1073" y="-878.91" font-family="Arial" font-size="10.50" fill="#0f172a">AWT / Swing</text>
<text xml:space="preserve" text-anchor="middle" x="1073" y="-866.31" font-family="Arial" font-size="10.50" fill="#0f172a">ThreadLocalRandom</text>
</g>
<!-- Game -->
<g id="node5" class="node">
<title>Game</title>
<path fill="#eff6ff" stroke="#334155" stroke-width="1.2" d="M466.07,-601.14C466.07,-601.14 567.93,-601.14 567.93,-601.14 573.93,-601.14 579.93,-607.14 579.93,-613.14 579.93,-613.14 579.93,-757.98 579.93,-757.98 579.93,-763.98 573.93,-769.98 567.93,-769.98 567.93,-769.98 466.07,-769.98 466.07,-769.98 460.07,-769.98 454.07,-763.98 454.07,-757.98 454.07,-757.98 454.07,-613.14 454.07,-613.14 454.07,-607.14 460.07,-601.14 466.07,-601.14"/>
<text xml:space="preserve" text-anchor="middle" x="517" y="-755.49" font-family="Arial" font-size="10.50" fill="#0f172a">Game</text>
<polyline fill="none" stroke="#334155" stroke-width="1.2" points="454.07,-747.3 579.93,-747.3"/>
<text xml:space="preserve" text-anchor="start" x="461.27" y="-732.81" font-family="Arial" font-size="10.50" fill="#0f172a">&#45; gameIO : GameIO</text>
<text xml:space="preserve" text-anchor="start" x="461.27" y="-720.21" font-family="Arial" font-size="10.50" fill="#0f172a">&#45; player : Player</text>
<text xml:space="preserve" text-anchor="start" x="461.27" y="-707.61" font-family="Arial" font-size="10.50" fill="#0f172a">&#45; enemies : List</text>
<text xml:space="preserve" text-anchor="start" x="461.27" y="-695.01" font-family="Arial" font-size="10.50" fill="#0f172a">&#45; playerProjectiles : List</text>
<text xml:space="preserve" text-anchor="start" x="461.27" y="-682.41" font-family="Arial" font-size="10.50" fill="#0f172a">&#45; enemyProjectiles : List</text>
<polyline fill="none" stroke="#334155" stroke-width="1.2" points="454.07,-674.22 579.93,-674.22"/>
<text xml:space="preserve" text-anchor="start" x="461.27" y="-659.73" font-family="Arial" font-size="10.50" fill="#0f172a">+ run() : void</text>
<text xml:space="preserve" text-anchor="start" x="461.27" y="-647.13" font-family="Arial" font-size="10.50" fill="#0f172a">&#45; updateProjectiles()</text>
<text xml:space="preserve" text-anchor="start" x="461.27" y="-634.53" font-family="Arial" font-size="10.50" fill="#0f172a">&#45; updateEnemies()</text>
<text xml:space="preserve" text-anchor="start" x="461.27" y="-621.93" font-family="Arial" font-size="10.50" fill="#0f172a">&#45; updatePlayer()</text>
<text xml:space="preserve" text-anchor="start" x="461.27" y="-609.33" font-family="Arial" font-size="10.50" fill="#0f172a">&#45; draw()</text>
</g>
<!-- EnemySpawner -->
<g id="node6" class="node">
<title>EnemySpawner</title>
<path fill="#eff6ff" stroke="#334155" stroke-width="1.2" d="M27.67,-387C27.67,-387 154.33,-387 154.33,-387 160.33,-387 166.33,-393 166.33,-399 166.33,-399 166.33,-480.84 166.33,-480.84 166.33,-486.84 160.33,-492.84 154.33,-492.84 154.33,-492.84 27.67,-492.84 27.67,-492.84 21.67,-492.84 15.67,-486.84 15.67,-480.84 15.67,-480.84 15.67,-399 15.67,-399 15.67,-393 21.67,-387 27.67,-387"/>
<text xml:space="preserve" text-anchor="middle" x="91" y="-478.35" font-family="Arial" font-size="10.50" fill="#0f172a">EnemySpawner</text>
<polyline fill="none" stroke="#334155" stroke-width="1.2" points="15.67,-470.16 166.33,-470.16"/>
<text xml:space="preserve" text-anchor="start" x="22.87" y="-455.67" font-family="Arial" font-size="10.50" fill="#0f172a">&#45; gameIO : GameIO</text>
<text xml:space="preserve" text-anchor="start" x="22.87" y="-443.07" font-family="Arial" font-size="10.50" fill="#0f172a">&#45; próximos spawns</text>
<text xml:space="preserve" text-anchor="start" x="22.87" y="-430.47" font-family="Arial" font-size="10.50" fill="#0f172a">&#45; formação do EnemyType2</text>
<polyline fill="none" stroke="#334155" stroke-width="1.2" points="15.67,-422.28 166.33,-422.28"/>
<text xml:space="preserve" text-anchor="start" x="22.87" y="-407.79" font-family="Arial" font-size="10.50" fill="#0f172a">+ spawn(time) : List&lt;Enemy&gt;</text>
<text xml:space="preserve" text-anchor="start" x="22.87" y="-395.19" font-family="Arial" font-size="10.50" fill="#0f172a">&#45; cria EnemyType1 / 2 / 3</text>
</g>
<!-- CollisionDetector -->
<g id="node7" class="node">
<title>CollisionDetector</title>
<path fill="#eff6ff" stroke="#334155" stroke-width="1.2" d="M213.03,-387C213.03,-387 400.97,-387 400.97,-387 406.97,-387 412.97,-393 412.97,-399 412.97,-399 412.97,-480.84 412.97,-480.84 412.97,-486.84 406.97,-492.84 400.97,-492.84 400.97,-492.84 213.03,-492.84 213.03,-492.84 207.03,-492.84 201.03,-486.84 201.03,-480.84 201.03,-480.84 201.03,-399 201.03,-399 201.03,-393 207.03,-387 213.03,-387"/>
<text xml:space="preserve" text-anchor="middle" x="307" y="-478.35" font-family="Arial" font-size="10.50" fill="#0f172a">CollisionDetector</text>
<polyline fill="none" stroke="#334155" stroke-width="1.2" points="201.03,-470.16 412.97,-470.16"/>
<text xml:space="preserve" text-anchor="start" x="208.23" y="-455.67" font-family="Arial" font-size="10.50" fill="#0f172a">verifica Player, Enemy e Projectile</text>
<polyline fill="none" stroke="#334155" stroke-width="1.2" points="201.03,-447.48 412.97,-447.48"/>
<text xml:space="preserve" text-anchor="start" x="208.23" y="-432.99" font-family="Arial" font-size="10.50" fill="#0f172a">+ detect(player, enemies, projectiles, time)</text>
<text xml:space="preserve" text-anchor="start" x="208.23" y="-420.39" font-family="Arial" font-size="10.50" fill="#0f172a">&#45; detectPlayerCollisions()</text>
<text xml:space="preserve" text-anchor="start" x="208.23" y="-407.79" font-family="Arial" font-size="10.50" fill="#0f172a">&#45; detectEnemyCollisions()</text>
<text xml:space="preserve" text-anchor="start" x="208.23" y="-395.19" font-family="Arial" font-size="10.50" fill="#0f172a">&#45; collides() : boolean</text>
</g>
<!-- StarField -->
<g id="node8" class="node">
<title>StarField</title>
<path fill="#eff6ff" stroke="#334155" stroke-width="1.2" d="M459.86,-393.3C459.86,-393.3 568.14,-393.3 568.14,-393.3 574.14,-393.3 580.14,-399.3 580.14,-405.3 580.14,-405.3 580.14,-474.54 580.14,-474.54 580.14,-480.54 574.14,-486.54 568.14,-486.54 568.14,-486.54 459.86,-486.54 459.86,-486.54 453.86,-486.54 447.86,-480.54 447.86,-474.54 447.86,-474.54 447.86,-405.3 447.86,-405.3 447.86,-399.3 453.86,-393.3 459.86,-393.3"/>
<text xml:space="preserve" text-anchor="middle" x="514" y="-472.05" font-family="Arial" font-size="10.50" fill="#0f172a">StarField</text>
<polyline fill="none" stroke="#334155" stroke-width="1.2" points="447.86,-463.86 580.14,-463.86"/>
<text xml:space="preserve" text-anchor="start" x="455.06" y="-449.37" font-family="Arial" font-size="10.50" fill="#0f172a">&#45; gameIO : GameIO</text>
<text xml:space="preserve" text-anchor="start" x="455.06" y="-436.77" font-family="Arial" font-size="10.50" fill="#0f172a">&#45; distantLayer : StarLayer</text>
<text xml:space="preserve" text-anchor="start" x="455.06" y="-424.17" font-family="Arial" font-size="10.50" fill="#0f172a">&#45; nearLayer : StarLayer</text>
<polyline fill="none" stroke="#334155" stroke-width="1.2" points="447.86,-415.98 580.14,-415.98"/>
<text xml:space="preserve" text-anchor="start" x="455.06" y="-401.49" font-family="Arial" font-size="10.50" fill="#0f172a">+ draw(delta) : void</text>
</g>
<!-- StarLayer -->
<g id="node9" class="node">
<title>StarLayer</title>
<path fill="#eff6ff" stroke="#334155" stroke-width="1.2" d="M433.42,-161.46C433.42,-161.46 556.58,-161.46 556.58,-161.46 562.58,-161.46 568.58,-167.46 568.58,-173.46 568.58,-173.46 568.58,-255.3 568.58,-255.3 568.58,-261.3 562.58,-267.3 556.58,-267.3 556.58,-267.3 433.42,-267.3 433.42,-267.3 427.42,-267.3 421.42,-261.3 421.42,-255.3 421.42,-255.3 421.42,-173.46 421.42,-173.46 421.42,-167.46 427.42,-161.46 433.42,-161.46"/>
<text xml:space="preserve" text-anchor="middle" x="495" y="-252.81" font-family="Arial" font-size="10.50" fill="#0f172a">&lt;&lt;interna&gt;&gt;</text>
<text xml:space="preserve" text-anchor="middle" x="495" y="-240.21" font-family="Arial" font-size="10.50" fill="#0f172a">StarLayer</text>
<polyline fill="none" stroke="#334155" stroke-width="1.2" points="421.42,-232.02 568.58,-232.02"/>
<text xml:space="preserve" text-anchor="start" x="428.62" y="-217.53" font-family="Arial" font-size="10.50" fill="#0f172a">&#45; positions : double[]</text>
<text xml:space="preserve" text-anchor="start" x="428.62" y="-204.93" font-family="Arial" font-size="10.50" fill="#0f172a">&#45; speed, size, offset</text>
<text xml:space="preserve" text-anchor="start" x="428.62" y="-192.33" font-family="Arial" font-size="10.50" fill="#0f172a">&#45; color : Color</text>
<polyline fill="none" stroke="#334155" stroke-width="1.2" points="421.42,-184.14 568.58,-184.14"/>
<text xml:space="preserve" text-anchor="start" x="428.62" y="-169.65" font-family="Arial" font-size="10.50" fill="#0f172a">+ draw(delta, gameIO) : void</text>
</g>
<!-- GameIO -->
<g id="node10" class="node">
<title>GameIO</title>
<path fill="#ecfdf5" stroke="#334155" stroke-width="1.2" d="M865.57,-385.74C865.57,-385.74 972.43,-385.74 972.43,-385.74 978.43,-385.74 984.43,-391.74 984.43,-397.74 984.43,-397.74 984.43,-482.1 984.43,-482.1 984.43,-488.1 978.43,-494.1 972.43,-494.1 972.43,-494.1 865.57,-494.1 865.57,-494.1 859.57,-494.1 853.57,-488.1 853.57,-482.1 853.57,-482.1 853.57,-397.74 853.57,-397.74 853.57,-391.74 859.57,-385.74 865.57,-385.74"/>
<text xml:space="preserve" text-anchor="middle" x="919" y="-479.61" font-family="Arial" font-size="10.50" fill="#0f172a">&lt;&lt;interface&gt;&gt;</text>
<text xml:space="preserve" text-anchor="middle" x="919" y="-467.01" font-family="Arial" font-size="10.50" fill="#0f172a">GameIO</text>
<polyline fill="none" stroke="#334155" stroke-width="1.2" points="853.57,-458.82 984.43,-458.82"/>
<text xml:space="preserve" text-anchor="start" x="860.77" y="-444.33" font-family="Arial" font-size="10.50" fill="#0f172a">+ getWidth(), getHeight()</text>
<text xml:space="preserve" text-anchor="start" x="860.77" y="-431.73" font-family="Arial" font-size="10.50" fill="#0f172a">+ initializeGraphics()</text>
<text xml:space="preserve" text-anchor="start" x="860.77" y="-419.13" font-family="Arial" font-size="10.50" fill="#0f172a">+ isKeyPressed(Key)</text>
<text xml:space="preserve" text-anchor="start" x="860.77" y="-406.53" font-family="Arial" font-size="10.50" fill="#0f172a">+ operações de desenho</text>
<text xml:space="preserve" text-anchor="start" x="860.77" y="-393.93" font-family="Arial" font-size="10.50" fill="#0f172a">+ display()</text>
</g>
<!-- Entity -->
<g id="node11" class="node">
<title>Entity</title>
<path fill="#ecfdf5" stroke="#334155" stroke-width="1.2" d="M626.95,-355.5C626.95,-355.5 807.05,-355.5 807.05,-355.5 813.05,-355.5 819.05,-361.5 819.05,-367.5 819.05,-367.5 819.05,-512.34 819.05,-512.34 819.05,-518.34 813.05,-524.34 807.05,-524.34 807.05,-524.34 626.95,-524.34 626.95,-524.34 620.95,-524.34 614.95,-518.34 614.95,-512.34 614.95,-512.34 614.95,-367.5 614.95,-367.5 614.95,-361.5 620.95,-355.5 626.95,-355.5"/>
<text xml:space="preserve" text-anchor="middle" x="717" y="-509.85" font-family="Arial" font-size="10.50" fill="#0f172a">&lt;&lt;abstrata&gt;&gt;</text>
<text xml:space="preserve" text-anchor="middle" x="717" y="-497.25" font-family="Arial" font-size="10.50" fill="#0f172a">Entity</text>
<polyline fill="none" stroke="#334155" stroke-width="1.2" points="614.95,-489.06 819.05,-489.06"/>
<text xml:space="preserve" text-anchor="start" x="622.15" y="-474.57" font-family="Arial" font-size="10.50" fill="#0f172a">&#45; x, y, radius</text>
<text xml:space="preserve" text-anchor="start" x="622.15" y="-461.97" font-family="Arial" font-size="10.50" fill="#0f172a">&#45; color : Color</text>
<text xml:space="preserve" text-anchor="start" x="622.15" y="-449.37" font-family="Arial" font-size="10.50" fill="#0f172a">&#45; explosion : Explosion</text>
<text xml:space="preserve" text-anchor="start" x="622.15" y="-436.77" font-family="Arial" font-size="10.50" fill="#0f172a">&#45; shootingCooldown : ShootingCooldown</text>
<polyline fill="none" stroke="#334155" stroke-width="1.2" points="614.95,-428.58 819.05,-428.58"/>
<text xml:space="preserve" text-anchor="start" x="622.15" y="-414.09" font-family="Arial" font-size="10.50" fill="#0f172a">+ draw(time, gameIO)</text>
<text xml:space="preserve" text-anchor="start" x="622.15" y="-401.49" font-family="Arial" font-size="10.50" fill="#0f172a">+ move(delta, gameIO)</text>
<text xml:space="preserve" text-anchor="start" x="622.15" y="-388.89" font-family="Arial" font-size="10.50" fill="#0f172a">+ startExplosion(time)</text>
<text xml:space="preserve" text-anchor="start" x="622.15" y="-376.29" font-family="Arial" font-size="10.50" fill="#0f172a"># drawActive(gameIO)</text>
<text xml:space="preserve" text-anchor="start" x="622.15" y="-363.69" font-family="Arial" font-size="10.50" fill="#0f172a"># moveActive(delta, gameIO)</text>
</g>
<!-- Player -->
<g id="node12" class="node">
<title>Player</title>
<path fill="#ecfdf5" stroke="#334155" stroke-width="1.2" d="M616.06,-174.06C616.06,-174.06 827.94,-174.06 827.94,-174.06 833.94,-174.06 839.94,-180.06 839.94,-186.06 839.94,-186.06 839.94,-242.7 839.94,-242.7 839.94,-248.7 833.94,-254.7 827.94,-254.7 827.94,-254.7 616.06,-254.7 616.06,-254.7 610.06,-254.7 604.06,-248.7 604.06,-242.7 604.06,-242.7 604.06,-186.06 604.06,-186.06 604.06,-180.06 610.06,-174.06 616.06,-174.06"/>
<text xml:space="preserve" text-anchor="middle" x="722" y="-240.21" font-family="Arial" font-size="10.50" fill="#0f172a">Player</text>
<polyline fill="none" stroke="#334155" stroke-width="1.2" points="604.06,-232.02 839.94,-232.02"/>
<text xml:space="preserve" text-anchor="start" x="611.26" y="-217.53" font-family="Arial" font-size="10.50" fill="#0f172a">&#45; velocity : double</text>
<polyline fill="none" stroke="#334155" stroke-width="1.2" points="604.06,-209.34 839.94,-209.34"/>
<text xml:space="preserve" text-anchor="start" x="611.26" y="-194.85" font-family="Arial" font-size="10.50" fill="#0f172a">+ tryShoot(time, gameIO) : Optional&lt;Projectile&gt;</text>
<text xml:space="preserve" text-anchor="start" x="611.26" y="-182.25" font-family="Arial" font-size="10.50" fill="#0f172a">&#45; keepInsideGameArea()</text>
</g>
<!-- Projectile -->
<g id="node13" class="node">
<title>Projectile</title>
<path fill="#ecfdf5" stroke="#334155" stroke-width="1.2" d="M886.45,-167.76C886.45,-167.76 1033.55,-167.76 1033.55,-167.76 1039.55,-167.76 1045.55,-173.76 1045.55,-179.76 1045.55,-179.76 1045.55,-249 1045.55,-249 1045.55,-255 1039.55,-261 1033.55,-261 1033.55,-261 886.45,-261 886.45,-261 880.45,-261 874.45,-255 874.45,-249 874.45,-249 874.45,-179.76 874.45,-179.76 874.45,-173.76 880.45,-167.76 886.45,-167.76"/>
<text xml:space="preserve" text-anchor="middle" x="960" y="-246.51" font-family="Arial" font-size="10.50" fill="#0f172a">Projectile</text>
<polyline fill="none" stroke="#334155" stroke-width="1.2" points="874.45,-238.32 1045.55,-238.32"/>
<text xml:space="preserve" text-anchor="start" x="881.65" y="-223.83" font-family="Arial" font-size="10.50" fill="#0f172a">&#45; xVelocity, yVelocity</text>
<polyline fill="none" stroke="#334155" stroke-width="1.2" points="874.45,-215.64 1045.55,-215.64"/>
<text xml:space="preserve" text-anchor="start" x="881.65" y="-201.15" font-family="Arial" font-size="10.50" fill="#0f172a">+ createPlayerProjectile()</text>
<text xml:space="preserve" text-anchor="start" x="881.65" y="-188.55" font-family="Arial" font-size="10.50" fill="#0f172a">+ createEnemyProjectile()</text>
<text xml:space="preserve" text-anchor="start" x="881.65" y="-175.95" font-family="Arial" font-size="10.50" fill="#0f172a">+ isOutsideGameArea() : boolean</text>
</g>
<!-- Enemy -->
<g id="node14" class="node">
<title>Enemy</title>
<path fill="#ecfdf5" stroke="#334155" stroke-width="1.2" d="M1092.82,-161.46C1092.82,-161.46 1273.18,-161.46 1273.18,-161.46 1279.18,-161.46 1285.18,-167.46 1285.18,-173.46 1285.18,-173.46 1285.18,-255.3 1285.18,-255.3 1285.18,-261.3 1279.18,-267.3 1273.18,-267.3 1273.18,-267.3 1092.82,-267.3 1092.82,-267.3 1086.82,-267.3 1080.82,-261.3 1080.82,-255.3 1080.82,-255.3 1080.82,-173.46 1080.82,-173.46 1080.82,-167.46 1086.82,-161.46 1092.82,-161.46"/>
<text xml:space="preserve" text-anchor="middle" x="1183" y="-252.81" font-family="Arial" font-size="10.50" fill="#0f172a">&lt;&lt;abstrata&gt;&gt;</text>
<text xml:space="preserve" text-anchor="middle" x="1183" y="-240.21" font-family="Arial" font-size="10.50" fill="#0f172a">Enemy</text>
<polyline fill="none" stroke="#334155" stroke-width="1.2" points="1080.82,-232.02 1285.18,-232.02"/>
<text xml:space="preserve" text-anchor="start" x="1088.02" y="-217.53" font-family="Arial" font-size="10.50" fill="#0f172a">&#45; angle, velocity</text>
<text xml:space="preserve" text-anchor="start" x="1088.02" y="-204.93" font-family="Arial" font-size="10.50" fill="#0f172a">&#45; rotationVelocity</text>
<polyline fill="none" stroke="#334155" stroke-width="1.2" points="1080.82,-196.74 1285.18,-196.74"/>
<text xml:space="preserve" text-anchor="start" x="1088.02" y="-182.25" font-family="Arial" font-size="10.50" fill="#0f172a">+ tryShoot(time, player) : List&lt;Projectile&gt;</text>
<text xml:space="preserve" text-anchor="start" x="1088.02" y="-169.65" font-family="Arial" font-size="10.50" fill="#0f172a">+ isOutsideGameArea() : boolean</text>
</g>
<!-- Explosion -->
<g id="node15" class="node">
<title>Explosion</title>
<path fill="#faf5ff" stroke="#334155" stroke-width="1.2" d="M1332.22,-148.86C1332.22,-148.86 1459.78,-148.86 1459.78,-148.86 1465.78,-148.86 1471.78,-154.86 1471.78,-160.86 1471.78,-160.86 1471.78,-267.9 1471.78,-267.9 1471.78,-273.9 1465.78,-279.9 1459.78,-279.9 1459.78,-279.9 1332.22,-279.9 1332.22,-279.9 1326.22,-279.9 1320.22,-273.9 1320.22,-267.9 1320.22,-267.9 1320.22,-160.86 1320.22,-160.86 1320.22,-154.86 1326.22,-148.86 1332.22,-148.86"/>
<text xml:space="preserve" text-anchor="middle" x="1396" y="-265.41" font-family="Arial" font-size="10.50" fill="#0f172a">Explosion</text>
<polyline fill="none" stroke="#334155" stroke-width="1.2" points="1320.22,-257.22 1471.78,-257.22"/>
<text xml:space="preserve" text-anchor="start" x="1327.42" y="-242.73" font-family="Arial" font-size="10.50" fill="#0f172a">&#45; enabled, duration, startTime</text>
<polyline fill="none" stroke="#334155" stroke-width="1.2" points="1320.22,-234.54 1471.78,-234.54"/>
<text xml:space="preserve" text-anchor="start" x="1327.42" y="-220.05" font-family="Arial" font-size="10.50" fill="#0f172a">+ enabled(duration)</text>
<text xml:space="preserve" text-anchor="start" x="1327.42" y="-207.45" font-family="Arial" font-size="10.50" fill="#0f172a">+ disabled()</text>
<text xml:space="preserve" text-anchor="start" x="1327.42" y="-194.85" font-family="Arial" font-size="10.50" fill="#0f172a">+ start(time) : boolean</text>
<text xml:space="preserve" text-anchor="start" x="1327.42" y="-182.25" font-family="Arial" font-size="10.50" fill="#0f172a">+ isFinished(time) : boolean</text>
<text xml:space="preserve" text-anchor="start" x="1327.42" y="-169.65" font-family="Arial" font-size="10.50" fill="#0f172a">+ draw(x, y, time, gameIO)</text>
<text xml:space="preserve" text-anchor="start" x="1327.42" y="-157.05" font-family="Arial" font-size="10.50" fill="#0f172a">+ reset()</text>
</g>
<!-- ShootingCooldown -->
<g id="node16" class="node">
<title>ShootingCooldown</title>
<path fill="#faf5ff" stroke="#334155" stroke-width="1.2" d="M1518.76,-155.16C1518.76,-155.16 1663.24,-155.16 1663.24,-155.16 1669.24,-155.16 1675.24,-161.16 1675.24,-167.16 1675.24,-167.16 1675.24,-261.6 1675.24,-261.6 1675.24,-267.6 1669.24,-273.6 1663.24,-273.6 1663.24,-273.6 1518.76,-273.6 1518.76,-273.6 1512.76,-273.6 1506.76,-267.6 1506.76,-261.6 1506.76,-261.6 1506.76,-167.16 1506.76,-167.16 1506.76,-161.16 1512.76,-155.16 1518.76,-155.16"/>
<text xml:space="preserve" text-anchor="middle" x="1591" y="-259.11" font-family="Arial" font-size="10.50" fill="#0f172a">ShootingCooldown</text>
<polyline fill="none" stroke="#334155" stroke-width="1.2" points="1506.76,-250.92 1675.24,-250.92"/>
<text xml:space="preserve" text-anchor="start" x="1513.96" y="-236.43" font-family="Arial" font-size="10.50" fill="#0f172a">&#45; enabled, interval, nextShotTime</text>
<polyline fill="none" stroke="#334155" stroke-width="1.2" points="1506.76,-228.24 1675.24,-228.24"/>
<text xml:space="preserve" text-anchor="start" x="1513.96" y="-213.75" font-family="Arial" font-size="10.50" fill="#0f172a">+ enabled(interval, firstShot)</text>
<text xml:space="preserve" text-anchor="start" x="1513.96" y="-201.15" font-family="Arial" font-size="10.50" fill="#0f172a">+ disabled()</text>
<text xml:space="preserve" text-anchor="start" x="1513.96" y="-188.55" font-family="Arial" font-size="10.50" fill="#0f172a">+ isReady(time) : boolean</text>
<text xml:space="preserve" text-anchor="start" x="1513.96" y="-175.95" font-family="Arial" font-size="10.50" fill="#0f172a">+ recordShot(time)</text>
<text xml:space="preserve" text-anchor="start" x="1513.96" y="-163.35" font-family="Arial" font-size="10.50" fill="#0f172a">+ scheduleNextShot(time)</text>
</g>
<!-- EnemyType1 -->
<g id="node17" class="node">
<title>EnemyType1</title>
<path fill="#fffbeb" stroke="#334155" stroke-width="1.2" d="M985.04,-24.5C985.04,-24.5 1062.96,-24.5 1062.96,-24.5 1068.96,-24.5 1074.96,-30.5 1074.96,-36.5 1074.96,-36.5 1074.96,-70.46 1074.96,-70.46 1074.96,-76.46 1068.96,-82.46 1062.96,-82.46 1062.96,-82.46 985.04,-82.46 985.04,-82.46 979.04,-82.46 973.04,-76.46 973.04,-70.46 973.04,-70.46 973.04,-36.5 973.04,-36.5 973.04,-30.5 979.04,-24.5 985.04,-24.5"/>
<text xml:space="preserve" text-anchor="middle" x="1024" y="-67.97" font-family="Arial" font-size="10.50" fill="#0f172a">EnemyType1</text>
<polyline fill="none" stroke="#334155" stroke-width="1.2" points="973.04,-59.78 1074.96,-59.78"/>
<text xml:space="preserve" text-anchor="start" x="980.24" y="-45.29" font-family="Arial" font-size="10.50" fill="#0f172a">movimento vertical</text>
<text xml:space="preserve" text-anchor="start" x="980.24" y="-32.69" font-family="Arial" font-size="10.50" fill="#0f172a">tiro reto periódico</text>
</g>
<!-- EnemyType2 -->
<g id="node18" class="node">
<title>EnemyType2</title>
<path fill="#fffbeb" stroke="#334155" stroke-width="1.2" d="M1122.15,-24.5C1122.15,-24.5 1243.85,-24.5 1243.85,-24.5 1249.85,-24.5 1255.85,-30.5 1255.85,-36.5 1255.85,-36.5 1255.85,-70.46 1255.85,-70.46 1255.85,-76.46 1249.85,-82.46 1243.85,-82.46 1243.85,-82.46 1122.15,-82.46 1122.15,-82.46 1116.15,-82.46 1110.15,-76.46 1110.15,-70.46 1110.15,-70.46 1110.15,-36.5 1110.15,-36.5 1110.15,-30.5 1116.15,-24.5 1122.15,-24.5"/>
<text xml:space="preserve" text-anchor="middle" x="1183" y="-67.97" font-family="Arial" font-size="10.50" fill="#0f172a">EnemyType2</text>
<polyline fill="none" stroke="#334155" stroke-width="1.2" points="1110.15,-59.78 1255.85,-59.78"/>
<text xml:space="preserve" text-anchor="start" x="1117.35" y="-45.29" font-family="Arial" font-size="10.50" fill="#0f172a">formação e trajetória curva</text>
<text xml:space="preserve" text-anchor="start" x="1117.35" y="-32.69" font-family="Arial" font-size="10.50" fill="#0f172a">disparo triplo com dispersão</text>
</g>
<!-- EnemyType3 -->
<g id="node19" class="node">
<title>EnemyType3</title>
<path fill="#fffbeb" stroke="#334155" stroke-width="1.2" d="M1302.55,-24.5C1302.55,-24.5 1425.45,-24.5 1425.45,-24.5 1431.45,-24.5 1437.45,-30.5 1437.45,-36.5 1437.45,-36.5 1437.45,-70.46 1437.45,-70.46 1437.45,-76.46 1431.45,-82.46 1425.45,-82.46 1425.45,-82.46 1302.55,-82.46 1302.55,-82.46 1296.55,-82.46 1290.55,-76.46 1290.55,-70.46 1290.55,-70.46 1290.55,-36.5 1290.55,-36.5 1290.55,-30.5 1296.55,-24.5 1302.55,-24.5"/>
<text xml:space="preserve" text-anchor="middle" x="1364" y="-67.97" font-family="Arial" font-size="10.50" fill="#0f172a">EnemyType3</text>
<polyline fill="none" stroke="#334155" stroke-width="1.2" points="1290.55,-59.78 1437.45,-59.78"/>
<text xml:space="preserve" text-anchor="start" x="1297.75" y="-45.29" font-family="Arial" font-size="10.50" fill="#0f172a">movimento oscilante</text>
<text xml:space="preserve" text-anchor="start" x="1297.75" y="-32.69" font-family="Arial" font-size="10.50" fill="#0f172a">rajada direcionada de 5 tiros</text>
</g>
<!-- Legend -->
<g id="node20" class="node">
<title>Legend</title>
<polygon fill="#f8fafc" stroke="#94a3b8" stroke-width="1.2" points="1148.92,-719.1 991.08,-719.1 991.08,-652.02 1154.92,-652.02 1154.92,-713.1 1148.92,-719.1"/>
<polyline fill="none" stroke="#94a3b8" stroke-width="1.2" points="1148.92,-719.1 1148.92,-713.1"/>
<polyline fill="none" stroke="#94a3b8" stroke-width="1.2" points="1154.92,-713.1 1148.92,-713.1"/>
<text xml:space="preserve" text-anchor="middle" x="1073" y="-705.51" font-family="Arial" font-size="9.50" fill="#0f172a">Legenda UML</text>
<text xml:space="preserve" text-anchor="middle" x="1073" y="-694.11" font-family="Arial" font-size="9.50" fill="#0f172a">triângulo: herança / implementação</text>
<text xml:space="preserve" text-anchor="middle" x="1073" y="-682.71" font-family="Arial" font-size="9.50" fill="#0f172a">diamante cheio: composição</text>
<text xml:space="preserve" text-anchor="middle" x="1073" y="-671.31" font-family="Arial" font-size="9.50" fill="#0f172a">diamante vazio: agregação</text>
<text xml:space="preserve" text-anchor="middle" x="1073" y="-659.91" font-family="Arial" font-size="9.50" fill="#0f172a">seta tracejada: dependência</text>
</g>
</g>
</svg>
